<?xml version="1.0" encoding="utf-8"?>
<!-- Generator: Adobe Illustrator 24.0.0, SVG Export Plug-In . SVG Version: 6.00 Build 0)  -->
<svg version="1.1" id="Capa_1" xmlns="http://www.w3.org/2000/svg" xmlns:xlink="http://www.w3.org/1999/xlink" x="0px" y="0px"
	 viewBox="0 0 1005 444" style="enable-background:new 0 0 1005 444;" xml:space="preserve">
<style type="text/css">
	.st0{fill:#FF6C2C;}
	.st1{clip-path:url(#SVGID_2_);}
	.st2{fill:none;}
	.st3{font-family:'Montserrat-Bold';}
	.st4{font-size:72px;}
</style>
<path class="st0" d="M259.1,116.3l-27.5,101.9c-1.7,6.1-4.2,11.7-7.6,16.9c-3.4,5.2-7.5,9.5-12.3,13.2c-4.8,3.6-10.1,6.5-15.9,8.5
	c-5.8,2-12,3.1-18.3,3.1H27l38.3-144c0.6-2.5,2-4.6,4.1-6.2s4.5-2.4,7.2-2.4H97c2.4,0,4.4,1,5.8,2.9c1.5,1.9,1.9,4,1.2,6.3
	L75.6,222.3h38.7l28.6-106.6c0.6-2.5,2-4.6,4.1-6.2s4.4-2.4,7-2.4h20.6c2.4,0,4.3,1,5.7,2.9s1.8,4,1.1,6.3l-28.4,106h23.3
	c4.6,0,8.7-1.4,12.3-4.1c3.6-2.7,6-6.3,7.2-10.8l24.6-91.7c0.6-2.5,2-4.6,4.1-6.2s4.5-2.4,7.2-2.4H252c2.4,0,4.4,1,5.8,2.9
	C259.3,111.9,259.7,114,259.1,116.3 M290.6,181c-1.5,1.2-2.6,2.8-3.2,4.7l-8.6,32.4c-0.5,1.8-0.2,3.4,1,5c1.1,1.5,2.7,2.3,4.6,2.3
	h79l-6.1,22.7c-1,3.4-2.9,6.2-5.7,8.4c-2.8,2.2-6,3.2-9.5,3.2H270c-5.2,0-10-1.1-14.3-3.3c-4.3-2.2-7.9-5.2-10.8-9
	c-2.9-3.7-4.8-8-5.9-12.8c-1.1-4.8-0.9-9.6,0.5-14.6l11.6-43.3c1.3-4.7,3.2-9,5.9-13c2.7-3.9,5.8-7.3,9.4-10.1s7.7-5,12.2-6.6
	s9.2-2.4,14-2.4h50.9c5.2,0,10,1.1,14.3,3.4c4.3,2.3,7.9,5.3,10.8,9s4.8,7.9,5.8,12.8c1,4.8,0.9,9.7-0.4,14.7l-3.4,13
	c-1.5,5.7-4.6,10.3-9.2,13.8s-9.9,5.2-15.7,5.2h-57.6l3.8-14.1c0.9-3.4,2.7-6.2,5.5-8.4s6-3.2,9.7-3.2h23.3c2.2,0,3.6-1.1,4.2-3.2
	l0.8-2.9c0.4-1.4,0.1-2.7-0.8-3.8s-2-1.7-3.4-1.7h-35.5C293.8,179.2,292.1,179.8,290.6,181 M420.8,107.1c2.7,0,5.1,0.6,7.3,1.7
	c2.2,1.1,3.9,2.6,5.3,4.5c1.4,1.8,2.4,4,3,6.4s0.5,4.9-0.3,7.4l-25.4,95.2H443c4.6,0,8.6-1.4,12.2-4.2s6-6.4,7.3-10.9
	c0.9-3.2,1-6.3,0.3-9.3c-0.7-3.1-2-5.8-3.8-8.1c-1.8-2.4-4.1-4.3-6.9-5.7c-2.7-1.5-5.8-2.2-9.1-2.2h-1.3c-2.9,0-5.2-1.1-6.9-3.3
	c-1.7-2.2-2.2-4.7-1.5-7.5l7.3-26.5h4.2c9.3,0,17.8,2,25.5,6s14.1,9.3,19.2,15.9c5.1,6.6,8.6,14.2,10.5,22.7s1.6,17.2-0.8,26.1
	l-0.8,2.9c-1.7,6.1-4.2,11.7-7.7,16.9s-7.6,9.5-12.4,13.2c-4.8,3.6-10.1,6.5-15.9,8.5c-5.8,2-12,3.1-18.3,3.1h-61.4
	c-2.7,0-5.1-0.6-7.2-1.7s-3.9-2.6-5.3-4.5c-1.5-1.8-2.5-4-3-6.4s-0.4-4.9,0.2-7.4l35.5-132.6h17.9 M496.9,250.7l28.2-106h120.5
	c9.3,0,17.8,2,25.5,6s14.1,9.3,19.2,15.9c5.1,6.6,8.6,14.2,10.5,22.7s1.7,17.2-0.8,26.1l-9.7,35.9c-0.6,2.5-2,4.6-4.1,6.1
	s-4.4,2.3-7,2.3h-20.6c-2.4,0-4.3-0.9-5.7-2.8c-1.4-1.8-1.8-3.9-1.1-6.2l11.4-43.3c0.9-3.2,1-6.3,0.3-9.3c-0.7-3.1-1.9-5.8-3.7-8.1
	c-1.8-2.4-4.1-4.3-6.9-5.7c-2.8-1.5-5.9-2.2-9.2-2.2h-12.4l-18.5,69.2c-0.6,2.5-2,4.6-4.1,6.1s-4.5,2.3-7.2,2.3h-20.4
	c-2.4,0-4.4-0.9-5.8-2.8c-1.5-1.8-1.9-3.9-1.2-6.2l18.5-68.7H554l-18.5,69.2c-0.6,2.5-2,4.6-4.1,6.1c-2.1,1.5-4.5,2.3-7.2,2.3h-20.4
	c-2.3,0-4.2-0.9-5.6-2.8C496.7,255.1,496.3,253,496.9,250.7 M803.3,184.5l0.6-2.1c0.3-1,0.1-1.9-0.5-2.6c-0.6-0.7-1.4-1-2.4-1h-62
	c-2.7,0-5.1-0.6-7.2-1.7c-2.2-1.1-3.9-2.6-5.3-4.5c-1.4-1.8-2.4-4-2.9-6.4s-0.5-4.9,0.2-7.4l3.8-14.5h83.9c5.2,0,10,1.1,14.3,3.4
	c4.3,2.3,7.9,5.3,10.8,9c2.9,3.7,4.8,7.9,5.9,12.7c1.1,4.8,1,9.7-0.3,14.8l-15.1,56.1c-1.5,5.7-4.6,10.4-9.2,13.9
	c-4.6,3.6-10,5.3-15.9,5.3l-62-0.2c-5.5,0-10.5-1.2-15.1-3.5c-4.6-2.4-8.3-5.5-11.3-9.3c-2.9-3.9-5-8.3-6.1-13.4
	c-1.1-5-1-10.1,0.4-15.4l0.8-2.9c0.9-3.6,2.4-6.9,4.5-9.9s4.5-5.7,7.3-7.8c2.8-2.2,5.9-3.8,9.3-5.1c3.4-1.2,7.1-1.8,10.9-1.8h52.1
	l-3.8,14.3c-1,3.4-2.9,6.2-5.7,8.4s-6,3.2-9.5,3.2h-23.3c-2.2,0-3.6,1.1-4.2,3.2c-0.4,1.4-0.1,2.6,0.8,3.7c0.9,1.1,2,1.6,3.4,1.6
	H788c1.4,0,2.6-0.4,3.6-1.1c1-0.8,1.7-1.8,1.9-3.1l0.4-1.5L803.3,184.5 M866.4,126.8l2.9-11.1c0.6-2.5,2-4.6,4.1-6.2
	s4.5-2.4,7.2-2.4h20.6c2.3,0,4.2,1,5.6,2.9c1.5,1.9,1.9,3.9,1.2,6.1l-3.1,11.3c-0.6,2.5-2,4.6-4.1,6.2c-2.1,1.6-4.4,2.4-7,2.4h-20.6
	c-2.4,0-4.3-1-5.7-2.9C866.1,131.1,865.8,129,866.4,126.8L866.4,126.8z M830.9,259.7l24.4-91.7c0.9-3.4,2.3-6.6,4.3-9.4
	c2-2.9,4.3-5.3,7-7.4c2.7-2.1,5.7-3.7,9-4.9c3.3-1.1,6.7-1.7,10.3-1.7h14.5l-24.6,91.7c-0.9,3.4-2.3,6.6-4.3,9.4
	c-2,2.9-4.3,5.3-7,7.4c-2.7,2.1-5.7,3.7-9,4.9c-3.3,1.1-6.7,1.7-10.3,1.7L830.9,259.7"/>
<g>
	<g>
		<defs>
			<rect id="SVGID_1_" x="878.3" y="107.1" width="77.8" height="152.6"/>
		</defs>
		<clipPath id="SVGID_2_">
			<use xlink:href="#SVGID_1_"  style="overflow:visible;"/>
		</clipPath>
		<g class="st1">
			<path class="st0" d="M878.8,259.7l38.3-144c0.6-2.5,2-4.6,4.1-6.2s4.5-2.4,7.2-2.4h20.4c2.4,0,4.3,0.9,5.8,2.8
				c1.5,1.8,1.9,3.9,1.2,6.2l-28.6,106.2c-1.4,5.6-3.7,10.7-6.8,15.3s-6.8,8.5-11.1,11.7s-9,5.8-14.2,7.6
				C890,258.8,884.5,259.7,878.8,259.7"/>
		</g>
	</g>
</g>
<rect x="134.7" y="287" class="st2" width="1461.8" height="127"/>
<text transform="matrix(1 0 0 1 134.7371 340.4229)" class="st3 st4">Correo Corporativo</text>
</svg>
